<svg viewBox="0 0 18 30" fill="none" xmlns="http://www.w3.org/2000/svg">
<path d="M7.04024 2.72429L7.0403 2.72423C8.49992 1.30176 10.4823 0.500253 12.5522 0.5C12.5522 0.5 12.5522 0.5 12.5522 0.5H16.8152C17.0007 0.5 17.1762 0.571955 17.3036 0.696062C17.4305 0.81974 17.4993 0.984681 17.4993 1.15385V6.69231C17.4993 6.86147 17.4305 7.02641 17.3036 7.15009C17.1762 7.2742 17.0007 7.34615 16.8152 7.34615H12.5522C12.4572 7.34615 12.3628 7.36437 12.2744 7.40006C12.186 7.43576 12.1048 7.48841 12.0358 7.55564C11.9668 7.62288 11.9113 7.70342 11.8732 7.793C11.8351 7.88261 11.8153 7.97913 11.8153 8.07692V11.0769V11.5769H12.3153H16.8152H16.8154C16.9215 11.5769 17.0258 11.6004 17.1202 11.6452C17.2145 11.69 17.2959 11.7546 17.3589 11.8332C17.4219 11.9118 17.4649 12.0023 17.4857 12.0977C17.5064 12.1931 17.5046 12.2917 17.4803 12.3864L17.4803 12.3865L16.0593 17.9249C16.0593 17.9249 16.0593 17.9249 16.0593 17.925C16.0236 18.0638 15.9407 18.1897 15.8207 18.2809C15.7004 18.3724 15.5504 18.4232 15.3944 18.4231H15.3942H12.3153H11.8153V18.9231V28.8462C11.8153 29.0153 11.7465 29.1803 11.6196 29.3039C11.4922 29.428 11.3167 29.5 11.1312 29.5H5.44717C5.26159 29.5 5.08614 29.428 4.95878 29.3039C4.83185 29.1803 4.763 29.0153 4.763 28.8462V18.9231V18.4231H4.263H1.18417C0.998591 18.4231 0.823143 18.3511 0.695773 18.227C0.568844 18.1033 0.5 17.9384 0.5 17.7692V12.2308C0.5 12.1467 0.51697 12.0632 0.550288 11.9848C0.583619 11.9064 0.632834 11.8343 0.695773 11.773C0.758739 11.7116 0.83419 11.6623 0.918142 11.6284C1.00212 11.5945 1.09255 11.5769 1.18417 11.5769H4.263H4.763V11.0769V8.07698C4.763 8.07696 4.763 8.07694 4.763 8.07692C4.76326 6.07176 5.58083 4.1461 7.04024 2.72429ZM2.36833 12.8846H1.86833V13.3846V16.6154V17.1154H2.36833H5.44717C5.63275 17.1154 5.8082 17.1873 5.93556 17.3114C6.06249 17.4351 6.13134 17.6001 6.13134 17.7692V27.6923V28.1923H6.63134H9.947H10.447V27.6923V17.7692C10.447 17.6001 10.5158 17.4351 10.6428 17.3114C10.7701 17.1873 10.9456 17.1154 11.1312 17.1154H14.4689H14.8569L14.9533 16.7396L15.7822 13.5089L15.9423 12.8846H15.2979H11.1312C10.9456 12.8846 10.7701 12.8127 10.6428 12.6886C10.5158 12.5649 10.447 12.3999 10.447 12.2308V8.07692C10.447 7.54054 10.6656 7.02341 11.059 6.64007C11.4528 6.25629 11.9897 6.03846 12.5522 6.03846H15.631H16.131V5.53846V2.30769V1.80769H15.631H12.5522C10.8534 1.80769 9.22165 2.46513 8.01657 3.63935C6.81105 4.814 6.13134 6.40997 6.13134 8.07692V12.2308C6.13134 12.3999 6.06249 12.5649 5.93556 12.6886C5.8082 12.8127 5.63275 12.8846 5.44717 12.8846H2.36833Z" fill="#161616" stroke="#161616"/>
</svg>
