<svg viewBox="0 0 41 31" fill="none" xmlns="http://www.w3.org/2000/svg">
<path d="M38.2264 6.21548C38.0163 5.40075 37.6037 4.65727 37.0298 4.05914C36.4558 3.46101 35.7405 3.02912 34.9552 2.80652C32.0709 2 20.5 2 20.5 2C20.5 2 8.92909 2 6.04477 2.80652C5.25946 3.02912 4.54419 3.46101 3.97025 4.05914C3.3963 4.65727 2.98372 5.40075 2.77364 6.21548C2 9.22555 2 15.5 2 15.5C2 15.5 2 21.7745 2.77364 24.7845C2.98347 25.5996 3.39593 26.3434 3.96989 26.9419C4.54385 27.5403 5.25926 27.9725 6.04477 28.1952C8.93077 29 20.5 29 20.5 29C20.5 29 32.0709 29 34.9552 28.1952C35.7407 27.9725 36.4561 27.5403 37.0301 26.9419C37.6041 26.3434 38.0165 25.5996 38.2264 24.7845C39 21.7779 39 15.5 39 15.5C39 15.5 39 9.22555 38.2264 6.21548ZM16.7159 21.1979V9.80387L26.3864 15.5017L16.7159 21.1979Z" stroke="#161616" stroke-width="2.5" stroke-miterlimit="10" stroke-linejoin="round"/>
</svg>
